<svg xmlns="http://www.w3.org/2000/svg" xmlns:xlink="http://www.w3.org/1999/xlink" width="500" zoomAndPan="magnify" viewBox="0 0 375 374.999991" height="500" preserveAspectRatio="xMidYMid meet" version="1.0"><defs><g/></defs><rect x="-37.5" width="450" fill="#ffffff" y="-37.499999" height="449.999989" fill-opacity="1"/><rect x="-37.5" width="450" fill="#23252e" y="-37.499999" height="449.999989" fill-opacity="1"/><g fill="#ffffff" fill-opacity="1"><g transform="translate(65.36401, 182.947013)"><g><path d="M 38.234375 -9.640625 L 17.234375 -9.640625 L 13.328125 0 L -1 0 L 20.921875 -49.640625 L 34.75 -49.640625 L 56.734375 0 L 42.125 0 Z M 34.109375 -20 L 27.734375 -35.890625 L 21.34375 -20 Z M 34.109375 -20 "/></g></g></g><g fill="#ffffff" fill-opacity="1"><g transform="translate(121.099343, 182.947013)"><g><path d="M 4.96875 -49.640625 L 19 -49.640625 L 19 -11.140625 L 42.6875 -11.140625 L 42.6875 0 L 4.96875 0 Z M 4.96875 -49.640625 "/></g></g></g><g fill="#ffffff" fill-opacity="1"><g transform="translate(164.354493, 182.947013)"><g><path d="M 4.96875 -49.640625 L 19 -49.640625 L 19 -11.140625 L 42.6875 -11.140625 L 42.6875 0 L 4.96875 0 Z M 4.96875 -49.640625 "/></g></g></g><g fill="#ffffff" fill-opacity="1"><g transform="translate(207.609644, 182.947013)"><g/></g></g><g fill="#ffffff" fill-opacity="1"><g transform="translate(228.244485, 182.947013)"><g><path d="M 4.96875 -49.640625 L 19 -49.640625 L 19 0 L 4.96875 0 Z M 4.96875 -49.640625 "/></g></g></g><g fill="#ffffff" fill-opacity="1"><g transform="translate(252.283004, 182.947013)"><g><path d="M 52.203125 -49.640625 L 52.203125 0 L 40.640625 0 L 18.71875 -26.453125 L 18.71875 0 L 4.96875 0 L 4.96875 -49.640625 L 16.53125 -49.640625 L 38.4375 -23.1875 L 38.4375 -49.640625 Z M 52.203125 -49.640625 "/></g></g></g><g fill="#ff9045" fill-opacity="1"><g transform="translate(109.325277, 217.031367)"><g><path d="M 6.140625 0.203125 C 4.160156 0.203125 2.726562 -0.285156 1.84375 -1.265625 C 0.96875 -2.242188 0.53125 -3.828125 0.53125 -6.015625 L 0.53125 -8.140625 L 4.8125 -8.140625 L 4.8125 -5.421875 C 4.8125 -4.335938 5.160156 -3.796875 5.859375 -3.796875 C 6.242188 -3.796875 6.507812 -3.910156 6.65625 -4.140625 C 6.8125 -4.367188 6.890625 -4.753906 6.890625 -5.296875 C 6.890625 -6.003906 6.804688 -6.59375 6.640625 -7.0625 C 6.472656 -7.53125 6.257812 -7.921875 6 -8.234375 C 5.738281 -8.546875 5.269531 -9.03125 4.59375 -9.6875 L 2.71875 -11.5625 C 1.257812 -12.976562 0.53125 -14.550781 0.53125 -16.28125 C 0.53125 -18.132812 0.957031 -19.546875 1.8125 -20.515625 C 2.664062 -21.492188 3.910156 -21.984375 5.546875 -21.984375 C 7.515625 -21.984375 8.925781 -21.460938 9.78125 -20.421875 C 10.644531 -19.390625 11.078125 -17.765625 11.078125 -15.546875 L 6.640625 -15.546875 L 6.625 -17.046875 C 6.625 -17.328125 6.539062 -17.550781 6.375 -17.71875 C 6.21875 -17.894531 5.992188 -17.984375 5.703125 -17.984375 C 5.367188 -17.984375 5.113281 -17.890625 4.9375 -17.703125 C 4.769531 -17.515625 4.6875 -17.257812 4.6875 -16.9375 C 4.6875 -16.226562 5.09375 -15.492188 5.90625 -14.734375 L 8.4375 -12.296875 C 9.03125 -11.722656 9.519531 -11.175781 9.90625 -10.65625 C 10.300781 -10.144531 10.613281 -9.535156 10.84375 -8.828125 C 11.082031 -8.128906 11.203125 -7.300781 11.203125 -6.34375 C 11.203125 -4.195312 10.804688 -2.566406 10.015625 -1.453125 C 9.234375 -0.347656 7.941406 0.203125 6.140625 0.203125 Z M 6.140625 0.203125 "/></g></g></g><g fill="#ff9045" fill-opacity="1"><g transform="translate(124.104821, 217.031367)"><g><path d="M 6.015625 0.203125 C 4.222656 0.203125 2.890625 -0.300781 2.015625 -1.3125 C 1.140625 -2.332031 0.703125 -3.835938 0.703125 -5.828125 L 0.703125 -21.78125 L 4.9375 -21.78125 L 4.9375 -6.015625 C 4.9375 -5.316406 5.003906 -4.769531 5.140625 -4.375 C 5.273438 -3.988281 5.566406 -3.796875 6.015625 -3.796875 C 6.453125 -3.796875 6.738281 -3.984375 6.875 -4.359375 C 7.007812 -4.742188 7.078125 -5.296875 7.078125 -6.015625 L 7.078125 -21.78125 L 11.3125 -21.78125 L 11.3125 -5.828125 C 11.3125 -3.835938 10.875 -2.332031 10 -1.3125 C 9.132812 -0.300781 7.804688 0.203125 6.015625 0.203125 Z M 6.015625 0.203125 "/></g></g></g><g fill="#ff9045" fill-opacity="1"><g transform="translate(139.213885, 217.031367)"><g><path d="M 0.96875 -21.78125 L 6.71875 -21.78125 C 8.457031 -21.78125 9.695312 -21.21875 10.4375 -20.09375 C 11.1875 -18.96875 11.5625 -17.328125 11.5625 -15.171875 C 11.5625 -13.003906 11.226562 -11.367188 10.5625 -10.265625 C 9.90625 -9.171875 8.726562 -8.625 7.03125 -8.625 L 5.25 -8.625 L 5.25 0 L 0.96875 0 Z M 5.5 -12.546875 C 6.03125 -12.546875 6.414062 -12.644531 6.65625 -12.84375 C 6.90625 -13.039062 7.066406 -13.320312 7.140625 -13.6875 C 7.210938 -14.050781 7.25 -14.566406 7.25 -15.234375 C 7.25 -16.148438 7.144531 -16.8125 6.9375 -17.21875 C 6.738281 -17.625 6.335938 -17.828125 5.734375 -17.828125 L 5.25 -17.828125 L 5.25 -12.546875 Z M 5.5 -12.546875 "/></g></g></g><g fill="#ff9045" fill-opacity="1"><g transform="translate(154.272252, 217.031367)"><g><path d="M 0.96875 0 L 0.96875 -21.78125 L 5.328125 -21.78125 L 5.328125 -3.703125 L 9.8125 -3.703125 L 9.8125 0 Z M 0.96875 0 "/></g></g></g><g fill="#ff9045" fill-opacity="1"><g transform="translate(167.429549, 217.031367)"><g><path d="M 0.96875 0 L 0.96875 -21.78125 L 9.6875 -21.78125 L 9.6875 -17.578125 L 5.40625 -17.578125 L 5.40625 -13.34375 L 9.515625 -13.34375 L 9.515625 -9.234375 L 5.40625 -9.234375 L 5.40625 -4.234375 L 9.96875 -4.234375 L 9.96875 0 Z M 0.96875 0 "/></g></g></g><g fill="#ff9045" fill-opacity="1"><g transform="translate(180.96705, 217.031367)"><g><path d="M 0.96875 0 L 0.96875 -21.78125 L 7.609375 -21.78125 L 9.4375 -8.5 L 11.265625 -21.78125 L 17.953125 -21.78125 L 17.953125 0 L 13.96875 0 L 13.96875 -15.703125 L 11.46875 0 L 7.5625 0 L 4.890625 -15.703125 L 4.890625 0 Z M 0.96875 0 "/></g></g></g><g fill="#ff9045" fill-opacity="1"><g transform="translate(202.97065, 217.031367)"><g><path d="M 0.96875 0 L 0.96875 -21.78125 L 9.6875 -21.78125 L 9.6875 -17.578125 L 5.40625 -17.578125 L 5.40625 -13.34375 L 9.515625 -13.34375 L 9.515625 -9.234375 L 5.40625 -9.234375 L 5.40625 -4.234375 L 9.96875 -4.234375 L 9.96875 0 Z M 0.96875 0 "/></g></g></g><g fill="#ff9045" fill-opacity="1"><g transform="translate(216.508151, 217.031367)"><g><path d="M 0.96875 0 L 0.96875 -21.78125 L 5.453125 -21.78125 L 7.453125 -11.359375 L 7.453125 -21.78125 L 11.671875 -21.78125 L 11.671875 0 L 7.40625 0 L 5.21875 -10.90625 L 5.21875 0 Z M 0.96875 0 "/></g></g></g><g fill="#ff9045" fill-opacity="1"><g transform="translate(232.225546, 217.031367)"><g><path d="M 2.84375 0 L 2.84375 -17.59375 L 0.25 -17.59375 L 0.25 -21.78125 L 9.78125 -21.78125 L 9.78125 -17.59375 L 7.203125 -17.59375 L 7.203125 0 Z M 2.84375 0 "/></g></g></g><g fill="#ff9045" fill-opacity="1"><g transform="translate(245.357492, 217.031367)"><g><path d="M 6.15625 0.203125 C 4.40625 0.203125 3.070312 -0.332031 2.15625 -1.40625 C 1.238281 -2.476562 0.78125 -3.988281 0.78125 -5.9375 L 0.78125 -16.3125 C 0.78125 -18.1875 1.238281 -19.597656 2.15625 -20.546875 C 3.070312 -21.503906 4.40625 -21.984375 6.15625 -21.984375 C 7.914062 -21.984375 9.25 -21.503906 10.15625 -20.546875 C 11.070312 -19.597656 11.53125 -18.1875 11.53125 -16.3125 L 11.53125 -5.9375 C 11.53125 -3.976562 11.070312 -2.460938 10.15625 -1.390625 C 9.25 -0.328125 7.914062 0.203125 6.15625 0.203125 Z M 6.15625 -3.796875 C 6.550781 -3.796875 6.816406 -3.960938 6.953125 -4.296875 C 7.085938 -4.640625 7.15625 -5.117188 7.15625 -5.734375 L 7.15625 -16.375 C 7.15625 -16.851562 7.085938 -17.238281 6.953125 -17.53125 C 6.828125 -17.832031 6.570312 -17.984375 6.1875 -17.984375 C 5.457031 -17.984375 5.09375 -17.429688 5.09375 -16.328125 L 5.09375 -5.703125 C 5.09375 -5.078125 5.164062 -4.601562 5.3125 -4.28125 C 5.46875 -3.957031 5.75 -3.796875 6.15625 -3.796875 Z M 6.15625 -3.796875 "/></g></g></g><g fill="#ff9045" fill-opacity="1"><g transform="translate(260.770714, 217.031367)"><g><path d="M 6.140625 0.203125 C 4.160156 0.203125 2.726562 -0.285156 1.84375 -1.265625 C 0.96875 -2.242188 0.53125 -3.828125 0.53125 -6.015625 L 0.53125 -8.140625 L 4.8125 -8.140625 L 4.8125 -5.421875 C 4.8125 -4.335938 5.160156 -3.796875 5.859375 -3.796875 C 6.242188 -3.796875 6.507812 -3.910156 6.65625 -4.140625 C 6.8125 -4.367188 6.890625 -4.753906 6.890625 -5.296875 C 6.890625 -6.003906 6.804688 -6.59375 6.640625 -7.0625 C 6.472656 -7.53125 6.257812 -7.921875 6 -8.234375 C 5.738281 -8.546875 5.269531 -9.03125 4.59375 -9.6875 L 2.71875 -11.5625 C 1.257812 -12.976562 0.53125 -14.550781 0.53125 -16.28125 C 0.53125 -18.132812 0.957031 -19.546875 1.8125 -20.515625 C 2.664062 -21.492188 3.910156 -21.984375 5.546875 -21.984375 C 7.515625 -21.984375 8.925781 -21.460938 9.78125 -20.421875 C 10.644531 -19.390625 11.078125 -17.765625 11.078125 -15.546875 L 6.640625 -15.546875 L 6.625 -17.046875 C 6.625 -17.328125 6.539062 -17.550781 6.375 -17.71875 C 6.21875 -17.894531 5.992188 -17.984375 5.703125 -17.984375 C 5.367188 -17.984375 5.113281 -17.890625 4.9375 -17.703125 C 4.769531 -17.515625 4.6875 -17.257812 4.6875 -16.9375 C 4.6875 -16.226562 5.09375 -15.492188 5.90625 -14.734375 L 8.4375 -12.296875 C 9.03125 -11.722656 9.519531 -11.175781 9.90625 -10.65625 C 10.300781 -10.144531 10.613281 -9.535156 10.84375 -8.828125 C 11.082031 -8.128906 11.203125 -7.300781 11.203125 -6.34375 C 11.203125 -4.195312 10.804688 -2.566406 10.015625 -1.453125 C 9.234375 -0.347656 7.941406 0.203125 6.140625 0.203125 Z M 6.140625 0.203125 "/></g></g></g></svg>