<svg  xmlns="http://www.w3.org/2000/svg" fill="#7f7f7f" xmlns:xlink="http://www.w3.org/1999/xlink" version="1.1" x="0px" y="0px" viewBox="0 0 100 125" xml:space="preserve"><g>
<path d="M71.3822098,40.8303528c3.0625-1.9819336,5.1708984-5.0336914,5.9384766-8.5927734c0-0.0004883,0-0.0004883,0-0.0009766   c0.765625-3.5644531,0.0927734-7.2163086-1.8994141-10.2885742c-0.6005859-0.9135742-1.3203125-1.7680664-2.1474609-2.550293   
c-0.7460938-0.6860352-1.5332031-1.2758789-2.3388672-1.753418c-1.6445313-0.9765625-3.5390625-1.6054688-5.4765625-1.8188477   c-3.0283203-0.34375-5.9921875,0.3149414-8.5595703,1.9003906l-0.3828125,0.2329102   c-1.6542969,1.0644531-3.03125,2.4560547-4.09375,4.1362305l-0.2001953,0.3178711  
 c-1.0664063,1.7924805-1.7099609,3.8354492-1.8623047,5.9003906c-0.1640625,2.0234375,0.140625,4.0991211,0.8798828,5.9916992   c0.3242188,0.8583984,0.75,1.6962891,1.2636719,2.4853516c1.1523438,1.7915039,2.6601563,3.2460938,4.4804688,4.3237305   
 c2.1708984,1.2866211,4.5771484,1.9272461,6.9794922,1.9272461C66.542366,43.0412903,69.1156082,42.3020325,71.3822098,40.8303528z    M54.1820145,35.7038879c-0.4375-0.6728516-0.7978516-1.3813477-1.0751953-2.1157227 
   c-0.6328125-1.621582-0.8935547-3.3896484-0.7529297-5.1206055c0.1298828-1.7646484,0.6787109-3.5048828,1.5732422-5.0097656   l0.1855469-0.2944336c0.9052734-1.4316406,2.078125-2.6171875,3.4628906-3.5087891l0.3671875-0.2231445  
    c1.8105469-1.1176758,3.8486328-1.6938477,5.9609375-1.6938477c0.4414063,0,0.8867188,0.0249023,1.3330078,0.0756836   c1.6591797,0.1826172,3.2763672,0.71875,4.6777344,1.5512695c0.6865234,0.4072266,1.3623047,0.9135742,1.9960938,1.4960938  
     c0.7050781,0.6665039,1.3232422,1.4018555,1.8359375,2.1806641c1.6972656,2.6176758,2.2724609,5.734375,1.6191406,8.7753906   c-0.6552734,3.0375977-2.4560547,5.6425781-5.0703125,7.3354492c-3.7373047,2.4262695-8.4472656,2.5185547-12.2919922,0.2412109 
       C56.4525223,38.4753723,55.1683426,37.2356262,54.1820145,35.7038879z"/><path d="M60.136116,22.0676575c0.1308594,0,0.2626953-0.0258789,0.390625-0.0795898   c0.25-0.1064453,0.5068359-0.2006836,0.7695313-0.28125c0.5283203-0.1621094,0.8251953-0.7216797,0.6630859-1.2495117  
        s-0.7207031-0.8261719-1.2490234-0.6625977c-0.3291016,0.1010742-0.6503906,0.21875-0.9648438,0.3515625   c-0.5078125,0.2158203-0.7460938,0.8027344-0.5302734,1.3110352C59.377327,21.8386536,59.7474442,22.0676575,60.136116,22.0676575z   "/>
        <path d="M64.6527176,38.4450989c0-0.5522461-0.4472656-1-1-1c-4.4267578,0-8.0283203-3.6088867-8.0283203-8.0449219   c0-2.2392578,0.9433594-4.3955078,2.5869141-5.9150391c0.4052734-0.375,0.4306641-1.0078125,0.0556641-1.4130859   
        c-0.3769531-0.4067383-1.0087891-0.4306641-1.4130859-0.0556641c-2.0527344,1.8969727-3.2294922,4.5883789-3.2294922,7.3837891   c0,5.5385742,4.4990234,10.0449219,10.0283203,10.0449219C64.205452,39.4450989,64.6527176,38.997345,64.6527176,38.4450989z"/>
        <path d="M89.839241,59.4133606l-6.3210449-9.7537231l0.2897949-0.2531128   c0.4296875-0.378418,0.6728516-0.9243164,0.6689453-1.4975586c-0.0039063-0.574707-0.2558594-1.1176758-0.6904297-1.4897461   c-0.0546875-0.0463867-0.1132813-0.0864258-0.1757813-0.1206055l-6.4326172-3.46875 
          c-0.2858887-0.1530151-0.6052246-0.1387939-0.8791504-0.0153809l-0.6013184-0.9274902   c-0.0102539-0.0158081-0.0268555-0.0237427-0.0378418-0.0387573c5.9438477-5.5609131,7.1726074-14.7962646,2.6599121-21.7527466  
           c-0.7294922-1.1386719-1.6259766-2.2138672-2.6669922-3.1948242c-2.6484375-2.4946289-6.1289063-4.0961914-9.8027344-4.5102539   c-3.7919922-0.4233398-7.5166016,0.4038086-10.7480469,2.3828125c-0.1494141,0.0869141-0.2978516,0.1743164-0.4462891,0.2734375 
             c-0.0283203,0.019043-0.0556641,0.0395508-0.0820313,0.0610352c-2.0498047,1.3364258-3.7539063,3.0678711-5.0517578,5.1254883   c-0.1064453,0.1586914-0.1982422,0.3051758-0.2578125,0.4169922c-1.3369141,2.2387695-2.1474609,4.7958984-2.3447266,7.3925781  
              c-0.203125,2.5883789,0.1679688,5.1118164,1.0986328,7.4863281c0.4199219,1.1176758,0.9580078,2.1748047,1.5917969,3.1342773   c1.1050415,1.7080078,2.4898071,3.1868896,4.0865479,4.3867188h-16.307251c-0.2041016,0-0.4023438,0.0620117-0.5703125,0.1782227
                 l-13.9403076,9.6679688h-1.8712158c-0.2255859,0-0.4443359,0.0761719-0.6210938,0.2163086l-9.7958994,7.7607422   c-0.0302734,0.0239258-0.0595703,0.050293-0.0869141,0.0776367c-0.4804688,0.4819336-0.6308594,1.1772461-0.3925781,1.8144531  
                  c0.2382813,0.6386719,0.8085938,1.065918,1.4433594,1.1103516l10.5058603,1.2241821v11.3334351   c0,1.9941406,1.4160156,3.7314453,3.3525391,4.1274414l32.5117188,7.1333008   c0.0703125,0.015625,0.1425781,0.0234375,0.2138672,0.0234375c0.1255493,0,0.2476196-0.0290527,0.3641968-0.0749512   c0.0366821-0.0144043,0.0674438-0.0379639,0.102356-0.0567627c0.0540161-0.0289307,0.1117554-0.0499878,0.1604004-0.0889893   c0.0179443-0.0144653,0.0250854-0.0373535,0.0418701-0.0529175c0.0189209-0.0172729,0.0438843-0.024353,0.0616455-0.0432739   l14.4648438-15.4648438c1.4091797-1.4868164,2.1855469-3.4443359,2.1855469-5.5126953v-9.3953247l5.3251953,8.2210083   c0.1435547,0.2226563,0.3710938,0.3789063,0.6298828,0.4345703c0.0693359,0.0146484,0.1396484,0.0219727,0.2089844,0.0219727   c0.1914063,0,0.3808594-0.0551758,0.5439453-0.1611328l7.3173828-4.7480469   C90.0081863,60.4958801,90.1400223,59.8767395,89.839241,59.4133606z M82.4180984,47.964447l-0.0360107-0.055542   l0.0616455,0.0332642L82.4180984,47.964447z M76.1726151,46.2953796l-1.7349854,1.1199951l-2.0498047-3.1621704   c0.2937012-0.1668091,0.5859375-0.3375244,0.8723145-0.5229492c0.3422852-0.2211914,0.6124268-0.4135742,0.8601074-0.6005859   L76.1726151,46.2953796z M73.882576,55.4044495c-0.0062256,0.005127-0.0137939,0.0075073-0.0198975,0.0128174l-6.0283203,5.2490234   l-8.1332397-6.8059692l9.4396362-8.1937866c0.4887695-0.1522827,0.9707031-0.3324585,1.4475098-0.5326538   c0.0090332,0.0158691,0.0095215,0.0339966,0.0195313,0.0494995l2.3120117,3.5666504   c-0.2786865,0.4031372-0.4797363,0.8588257-0.5844727,1.3518066c-0.2099609,0.987793-0.0175781,1.9985352,0.5361328,2.8388672   l1.3851318,2.1383667L73.882576,55.4044495z M51.283577,37.5691223c-0.5576172-0.8432617-1.0263672-1.7666016-1.3994141-2.7568359   c-0.8232422-2.1035156-1.1503906-4.328125-0.9707031-6.6157227c0.1748047-2.2919922,0.8896484-4.546875,2.0869141-6.5556641   c0.0517578-0.0947266,0.1123047-0.1894531,0.1972656-0.3164063c1.171875-1.8583984,2.6982422-3.4003906,4.5341797-4.5839844   c0.0341797-0.0219727,0.0664063-0.0458984,0.0976563-0.0717773c0.0927734-0.0595703,0.1884766-0.1147461,0.2978516-0.1782227   c2.8662109-1.7563477,6.1533203-2.4853516,9.4990234-2.112793c3.2460938,0.3657227,6.3193359,1.7788086,8.6552734,3.9785156   c0.921875,0.8691406,1.7138672,1.8178711,2.3544922,2.8198242c0.0019531,0.0019531,0.0029297,0.0039063,0.0039063,0.0058594   c4.2568359,6.5585938,2.7324219,15.4135742-3.4912109,20.175293c-0.2714844,0.2192383-0.5722656,0.4331055-0.9755859,0.6938477   c-1.2109375,0.7851563-2.4970703,1.3813477-3.8320313,1.7753906c-3.4941406,1.0664063-7.2548828,0.8208008-10.5908203-0.6884766   C55.1097488,41.9524231,52.8753738,40.0295715,51.283577,37.5691223z M37.7015457,45.0500793h19.4555664   c2.1655884,0.9430542,4.4814453,1.4301758,6.8051758,1.4301758c0.4143677,0,0.8289185-0.0154419,1.2427979-0.0457764   l-7.4442749,6.461792H26.3887405L37.7015457,45.0500793z M21.354866,54.8962708h34.6503906l-7.2940063,8.7689209   l-1.9160156,2.3033447l-34.3632202-4.0029297L21.354866,54.8962708z M24.0599442,76.4333801V65.4851379l23.0478516,2.5336914   c0.0028687,0.0003052,0.0054932-0.0003662,0.0083618-0.000061c0.0339355,0.003418,0.0679321,0.0059204,0.1010132,0.0059204   c0.0113525,0,0.0212402-0.0068359,0.0325317-0.0072021c0.135376-0.00354,0.2646484-0.0305786,0.3831787-0.0852661   c0.006897-0.0031738,0.0126953-0.0076904,0.0195313-0.0109863c0.1258545-0.0616455,0.2410889-0.1452637,0.333313-0.256897   l9.1523438-11.0023804v28.812439l-31.3115234-6.8696289C24.8031082,78.3952942,24.0599442,77.48172,24.0599442,76.4333801z    M71.877327,70.5647278L59.1380692,84.1843567V55.997345l8.0673828,6.7509766   c0.0935059,0.0782471,0.1980591,0.1363525,0.3078003,0.1751709c0.0444946,0.0158081,0.0914917,0.0144653,0.1372681,0.0237427   c0.0654907,0.0132446,0.1300659,0.0339966,0.1965332,0.0339966c0.0015259,0,0.0030518-0.0007935,0.0045776-0.0007935   c0.0933838-0.0003662,0.1846924-0.022522,0.2748413-0.0488892c0.0222168-0.0065308,0.0458374-0.0045166,0.067627-0.0125732   c0.1109009-0.0410156,0.2160034-0.1016235,0.3092041-0.1833496l5.015625-4.3635864v8.0510864   C73.5189285,67.9773254,72.9378738,69.4460754,71.877327,70.5647278z M81.9779129,63.3215637l-7.4316406-11.4750977   c-0.2617188-0.3969727-0.3525391-0.8691406-0.2548828-1.3291016c0.0986328-0.4624023,0.375-0.859375,0.7783203-1.1176758   c0.0302734-0.019043,0.0664063-0.0473633,0.1015625-0.0776367l2.5488281-1.6455078   c0.3984375-0.2607422,0.8779297-0.3496094,1.3447266-0.2485352c0.4667969,0.1000977,0.8652344,0.3745117,1.1269531,0.7817383   l7.4257813,11.4526367L81.9779129,63.3215637z"/></g>
                </svg>